<svg id="Layer_1" data-name="Layer 1" xmlns="http://www.w3.org/2000/svg" viewBox="0 0 38.25 26.28"><defs><style>.cls-1{fill:#ed1c24;}.cls-2{fill:#414042;}</style></defs><title>open</title><path class="cls-1" d="M8.07,15.66a3.11,3.11,0,0,0-1.35-.28c-.88,0-1.75.59-2.63,1.78A5.82,5.82,0,0,0,2.77,20.6,2,2,0,0,0,3.29,22a1.55,1.55,0,0,0,1.19.56A4.36,4.36,0,0,0,7.74,20.9a5.05,5.05,0,0,0,1.48-3.45A1.92,1.92,0,0,0,9,16.35,2.12,2.12,0,0,0,8.07,15.66Z" transform="translate(0 0)"/><path class="cls-1" d="M0,13.07V24.86a1.43,1.43,0,0,0,1.42,1.42H36.83a1.43,1.43,0,0,0,1.42-1.42V13.07a1.43,1.43,0,0,0-1.42-1.42H1.42A1.43,1.43,0,0,0,0,13.07Zm9.83,6.46a7,7,0,0,1-1.49,2.08,7.48,7.48,0,0,1-1.93,1.46,5.16,5.16,0,0,1-2.31.45,2.1,2.1,0,0,1-1.67-.93,3.09,3.09,0,0,1-.73-1.93A6.5,6.5,0,0,1,2.42,18,7.14,7.14,0,0,1,4.3,15.48a3.77,3.77,0,0,1,2.42-1,4.61,4.61,0,0,1,1.6.24,3.72,3.72,0,0,1,1.15.68,2.21,2.21,0,0,1,.67.92,3.81,3.81,0,0,1,.17,1.31A4.65,4.65,0,0,1,9.83,19.53Zm7.85-.84a9.88,9.88,0,0,1-3.84,1.5,2,2,0,0,0-.72.22,3.12,3.12,0,0,0-.12,1c0,.64-.05,1.08-.05,1.33a.71.71,0,0,1-.17.48.49.49,0,0,1-.39.21c-.34,0-.51-.23-.51-.7,0-.25.07-1,.21-2.12l.42-3.47c0-.06,0-.23,0-.51a.94.94,0,0,0-.11-.53c-.22-.07-.33-.28-.33-.6s.52-.5,1.55-.74a12.11,12.11,0,0,1,2.7-.36,3.42,3.42,0,0,1,2,.53,1.62,1.62,0,0,1,.75,1.4A2.9,2.9,0,0,1,17.68,18.69ZM27,15.38a.51.51,0,0,1-.24.16h-.31a3.26,3.26,0,0,0-.62.06,3.43,3.43,0,0,1-.57.1l-.36,0a6.34,6.34,0,0,1-1,.06,4.45,4.45,0,0,0-1.41.15.63.63,0,0,0-.33.56,4,4,0,0,1-.12.7,8.45,8.45,0,0,0-.29,1.54h.09a9.08,9.08,0,0,0,1.12-.08c.55-.06,1-.13,1.25-.19a6.51,6.51,0,0,1,1.31-.2c.48,0,.73.13.73.39a.55.55,0,0,1-.49.59c-.33.07-1,.16-2,.28a6.44,6.44,0,0,0-2,.37A3.53,3.53,0,0,0,21.41,21a9,9,0,0,0-.14,1.16v.06c0,.2.14.31.37.34h.11a3,3,0,0,0,.76-.05l1.13-.16,1.27-.21a7.6,7.6,0,0,1,1-.17.71.71,0,0,1,.37.14.5.5,0,0,1,.2.44.38.38,0,0,1-.11.3,4.31,4.31,0,0,1-1.54.29c-.54,0-1.39.11-2.54.27a9.34,9.34,0,0,1-1.15.13,1.91,1.91,0,0,1-.86-.11c-.11-.07-.18-.24-.21-.53l0-.19v0a1.56,1.56,0,0,1,.11-.38,12.49,12.49,0,0,0,.34-1.58c.13-.78.21-1.39.25-1.85,0-.15.05-.34.1-.57a13.16,13.16,0,0,0,.26-2.21.68.68,0,0,0-.12-.22.21.21,0,0,1,0-.06l-.08-.22a.38.38,0,0,1,0-.19v-.06c0-.09,0-.16.16-.23a.54.54,0,0,1,.3-.1h0a4,4,0,0,1,.56,0h0l1.3-.11c.77-.08,1.7-.21,2.78-.39l.21,0h.08a1,1,0,0,1,.63.09.63.63,0,0,1,.22.47A.43.43,0,0,1,27,15.38Zm9.37.68c-.24,1-.48,2.11-.72,3.44s-.36,2.1-.36,2.31c0,.42,0,.68,0,.79a.54.54,0,0,1-.2.48.89.89,0,0,1-.58.18.46.46,0,0,1-.28-.06l-.31-.31a1.11,1.11,0,0,1-.28-.5,1.84,1.84,0,0,0-.36-.59A30,30,0,0,1,30.71,18,.38.38,0,0,0,30,18c-.17.78-.33,1.71-.48,2.81l-.14,1a3,3,0,0,0,0,.59,2.41,2.41,0,0,1-.05.59.91.91,0,0,1-.24.35.51.51,0,0,1-.35.2.41.41,0,0,1-.46-.34,2.57,2.57,0,0,1-.07-.52,5.79,5.79,0,0,1,.26-1.39c.17-.64.38-1.63.63-3a19.43,19.43,0,0,0,.38-2.54v-.32a.83.83,0,0,1,.07-.3.51.51,0,0,1,.23-.23.76.76,0,0,1,.35-.09.72.72,0,0,1,.29.06.39.39,0,0,1,.19.21,2.72,2.72,0,0,1,.14.51,10.09,10.09,0,0,0,1.45,3c.58.9,1.1,1.65,1.57,2.25a.42.42,0,0,0,.74-.16c.16-.76.33-1.63.49-2.61a20.15,20.15,0,0,0,.35-2.84,1.81,1.81,0,0,1,.06-.58.58.58,0,0,1,.29-.26.93.93,0,0,1,.46-.12c.11,0,.21.08.28.24a1.22,1.22,0,0,1,.12.56A3.69,3.69,0,0,1,36.35,16.06Z" transform="translate(0 0)"/><path class="cls-1" d="M16.29,15.29a8.06,8.06,0,0,0-2.66.52,5,5,0,0,0-.08.63c-.06.54-.12,1.14-.21,1.8,0,.34-.08.71-.12,1.12a10,10,0,0,0,3.42-1.08c1-.55,1.5-1.14,1.5-1.79S17.52,15.29,16.29,15.29Z" transform="translate(0 0)"/><rect class="cls-2" x="2.83" y="5.76" width="17.5" height="1.22" rx="0.61" transform="translate(-1.11 10.05) rotate(-45)"/><rect class="cls-2" x="17.93" y="5.76" width="17.5" height="1.22" rx="0.61" transform="translate(41.04 29.73) rotate(-135)"/></svg>